<svg width="394" height="394" fill="none" xmlns="http://www.w3.org/2000/svg"><defs><clipPath id="prefix__a"><path transform="translate(23.394 .15)" fill="#fff" fill-opacity="0" d="M0 0h689.601v393.786H0z"/></clipPath></defs><path d="M0 0h394v394H0z"/><path fill="#00A3DE" d="M0 0h394v394H0z"/><g clip-path="url(#prefix__a)"><path stroke="#FFF" stroke-width="8.21" d="M107.005 41.763l74.04 74.22M46.135 189.303l114.969-1.76M101.275 343.573l78.6-78.6M254.95 392.98c-.21-37.23-.21-74.23 0-111.6M102.08 343.16c19.13-16.03 44.64-23.39 69.38-20.53 24.79 2.86 48.04 15.85 63.42 35.5 8.02 10.25 13.86 22.18 16.97 34.81"/><path d="M97.69 347.08c26.47-23.07 38.06-60.57 26.44-96.04-11.67-35.6-43.39-59-78.54-61.79 0 0-10.94-.87-21.88-1.73 10.26-.13 20.52-.27 20.52-.27 31.49-.41 61.69-17.88 76.91-47.93 15.27-30.15 11.39-64.98-7.09-90.63 21.65 20.19 53.34 28.27 83.47 18.4 30.83-10.1 51.85-36.34 56.76-66.29-.18 34.01-.5 98.72-.5 98.72" stroke="#FFF" stroke-width="8.21"/><rect x="165.045" y="103.073" rx="50.47" width="181.84" height="181.84" fill="none"/><rect x="165.045" y="103.073" rx="50.47" width="181.84" height="181.84" fill="none"/><rect x="165.045" y="103.073" rx="50.47" width="181.84" height="181.84" stroke="#FFF" stroke-width="8.21"/><rect x="188.505" y="127.713" rx="37.12" width="133.74" height="133.74" fill="none"/><rect x="188.505" y="127.713" rx="37.12" width="133.74" height="133.74" fill="none"/><rect x="188.505" y="127.713" rx="37.12" width="133.74" height="133.74" stroke="#FFF" stroke-width="8.14"/><path d="M294.67 198.67c0 17.49-17.33 31.67-38.71 31.67-21.38 0-38.71-14.18-38.71-31.67" stroke="#FFF" stroke-width="8.21"/><ellipse cx="294.675" cy="165.613" rx="1.17" ry="1.76" fill="none"/><ellipse cx="294.675" cy="165.613" rx="1.17" ry="1.76" fill="none"/><ellipse cx="294.675" cy="165.613" rx="1.17" ry="1.76" stroke="#FFF" stroke-width="13.41"/><ellipse cx="294.675" cy="165.613" rx="1.17" ry="1.76" fill="none"/><ellipse cx="294.675" cy="165.613" rx="1.17" ry="1.76" fill="none"/><ellipse cx="294.675" cy="165.613" rx="1.17" ry="1.76" stroke="#FFF" stroke-width="13.41"/><path d="M685.64 42c0 12.38-12.68 22.42-28.32 22.42S629 54.38 629 42" stroke="#FFF" stroke-width="9.5"/><ellipse cx="469.935" cy="16.603" rx=".8" ry=".84" fill="none"/></g></svg>